# xmcd
#
# Track frame offsets:
#	150
#	16521
#	35232
#	52066
#	68705
#	84501
#	104489
#	125911
#	141936
#	163915
#	169602
#	189170
#	207990
#	228581
#	254210
#	277015
#	297685
#	317479
#
# Disc length: 4517 seconds
#
# Revision: 1
# Processed by: cddbd v1.5PL3 Copyright (c) Steve Scherf et al.
# Submitted via: EasyCDDAExtractor 6.2.0.3
#
DISCID=1b11a312
DTITLE=刘若英 - 我的失败与伟大
DYEAR=2003
DGENRE=Pop
TTITLE0=我的失败与伟大
TTITLE1=分开旅行
TTITLE2=开始的那句
TTITLE3=原来你也在这里
TTITLE4=换我先吻你
TTITLE5=我的眼前的幸福
TTITLE6=什么时候
TTITLE7=如何让你懂
TTITLE8=似水年华
TTITLE9=下楼谈恋爱
TTITLE10=蝴蝶
TTITLE11=当爱在靠近
TTITLE12=一辈子的孤单
TTITLE13=后来
TTITLE14=为爱痴狂
TTITLE15=成全
TTITLE16=大家来恋爱
TTITLE17=很爱很爱你
EXTD=
EXTT0=
EXTT1=
EXTT2=
EXTT3=
EXTT4=
EXTT5=
EXTT6=
EXTT7=
EXTT8=
EXTT9=
EXTT10=
EXTT11=
EXTT12=
EXTT13=
EXTT14=
EXTT15=
EXTT16=
EXTT17=
PLAYORDER=
